<svg width="64" height="64" viewBox="0 0 64 64" xmlns="http://www.w3.org/2000/svg">
    <defs>
        <linearGradient id="gemGradientAmber" x1="0%" y1="0%" x2="100%" y2="100%">
            <stop offset="0%" style="stop-color:#fcd34d;"/> <!-- amber-300 -->
            <stop offset="100%" style="stop-color:#b45309;"/> <!-- amber-700 -->
        </linearGradient>
    </defs>
    
    <!-- Book Shape -->
    <path d="M 32 54 C 16 54 8 48 8 32 C 8 16 16 10 32 10 L 32 54 Z" fill="#443422"/>
    <path d="M 32 54 C 48 54 56 48 56 32 C 56 16 48 10 32 10 L 32 54 Z" fill="#443422"/>
    
    <!-- Pages -->
    <path d="M 32 50 C 20 50 12 45 12 32 C 12 19 20 14 32 14 L 32 50 Z" fill="#f1e9d2"/>
    <path d="M 32 50 C 44 50 52 45 52 32 C 52 19 44 14 32 14 L 32 50 Z" fill="#f1e9d2"/>
    
    <!-- Gem in the middle -->
    <path d="M32 26 L40 32 L32 38 L24 32 Z" fill="url(#gemGradientAmber)" stroke="#92400e" stroke-width="1.5"/>
</svg>
